<?xml version="1.0" encoding="utf-8"?>
<!-- Generator: Adobe Illustrator 19.0.0, SVG Export Plug-In . SVG Version: 6.00 Build 0)  -->
<svg version="1.1" id="Layer_1" xmlns="http://www.w3.org/2000/svg" xmlns:xlink="http://www.w3.org/1999/xlink" x="0px" y="0px"
	 viewBox="0 0 85 88.7" style="enable-background:new 0 0 85 88.7;" xml:space="preserve">
<style type="text/css">
	.st0{fill:#e676a8;}
</style>
<path id="XMLID_4_" class="st0" d="M41.9,5.7C20.2,5.7,2.6,23.3,2.6,45c0,19.3,13.9,35.3,32.2,38.6V49.5h-7.3V38.9h7.3v-3.3v-3.3
	v-0.5c0-3.1,0.1-8,2.4-11c2.4-3.2,5.7-5.3,11.4-5.3c9.2,0,13.1,1.3,13.1,1.3l-1.8,10.9c0,0-3.1-0.9-5.9-0.9c-2.8,0-5.4,1-5.4,3.9
	v1.2v3.8v3.3h11.7l-0.8,10.6H48.5v34.2C67.1,80.6,81.2,64.4,81.2,45C81.2,23.3,63.6,5.7,41.9,5.7z"/>
</svg>
