<?xml version="1.0" encoding="utf-8"?>
<!-- Generator: Adobe Illustrator 19.0.0, SVG Export Plug-In . SVG Version: 6.00 Build 0)  -->
<svg version="1.1" id="Layer_1" xmlns="http://www.w3.org/2000/svg" xmlns:xlink="http://www.w3.org/1999/xlink" x="0px" y="0px"
	 viewBox="0 0 91.1 91.1" style="enable-background:new 0 0 91.1 91.1;" xml:space="preserve">
<style type="text/css">
	.st0{fill:#263746;}
</style>
<path id="XMLID_80_" class="st0" d="M45.5,1.9C21.3,1.9,1.6,21.6,1.6,45.8c0,21.5,15.5,39.4,36,43.2V50.9h-8.2V39.1h8.2v-3.7v-3.6
	v-0.6c0-3.5,0.1-8.9,2.6-12.3c2.7-3.6,6.4-6,12.7-6c10.3,0,14.7,1.5,14.7,1.5l-2,12.1c0,0-3.4-1-6.6-1s-6,1.1-6,4.3v1.3v4.2V39h13.1
	l-0.9,11.8H52.9V89c20.7-3.5,36.5-21.6,36.5-43.3C89.5,21.6,69.8,1.9,45.5,1.9z"/>
</svg>
