<?xml version="1.0" standalone="no"?>
<!DOCTYPE svg PUBLIC "-//W3C//DTD SVG 20010904//EN"
 "http://www.w3.org/TR/2001/REC-SVG-20010904/DTD/svg10.dtd">
<svg version="1.0" xmlns="http://www.w3.org/2000/svg"
 width="300.000000pt" height="185.000000pt" viewBox="0 0 300.000000 185.000000"
 preserveAspectRatio="xMidYMid meet">
<metadata>
Created by potrace 1.10, written by Peter Selinger 2001-2011
</metadata>
<g transform="translate(0.000000,185.000000) scale(0.100000,-0.100000)"
fill="#ee40d3" stroke="none">
<path d="M1823 1784 c7 -8 187 -7 195 0 3 3 -41 6 -98 6 -57 0 -101 -3 -97 -6z"/>
<path d="M1760 1769 c0 -5 -4 -7 -10 -4 -9 6 -64 -24 -57 -31 4 -4 107 32 115
41 3 3 -7 5 -21 5 -15 0 -27 -5 -27 -11z"/>
<path d="M2045 1770 c3 -5 10 -10 16 -10 5 0 9 5 9 10 0 6 -7 10 -16 10 -8 0
-12 -4 -9 -10z"/>
<path d="M2120 1745 c7 -8 17 -15 22 -15 6 0 5 7 -2 15 -7 8 -17 15 -22 15 -6
0 -5 -7 2 -15z"/>
<path d="M1632 1715 c-16 -19 -4 -19 28 0 22 13 23 14 5 14 -11 0 -26 -6 -33
-14z"/>
<path d="M2190 1720 c0 -6 7 -13 15 -17 24 -9 27 1 5 15 -13 8 -20 8 -20 2z"/>
<path d="M1588 1693 c7 -3 16 -2 19 1 4 3 -2 6 -13 5 -11 0 -14 -3 -6 -6z"/>
<path d="M1560 1680 c0 -5 -6 -10 -13 -10 -8 0 -22 -9 -32 -20 -23 -26 -11
-25 31 1 19 11 32 25 28 30 -7 12 -14 11 -14 -1z"/>
<path d="M2280 1666 c8 -8 21 -16 29 -18 19 -4 162 -145 204 -200 20 -27 38
-44 41 -39 4 5 -12 29 -34 53 -22 23 -40 48 -40 53 0 6 -16 24 -36 40 -19 17
-61 51 -91 78 -31 26 -63 47 -72 47 -13 0 -13 -2 -1 -14z"/>
<path d="M93 1664 c9 -9 117 -10 117 -1 0 4 -28 7 -62 7 -34 0 -59 -3 -55 -6z"/>
<path d="M265 1650 c28 -4 58 -11 68 -15 9 -4 17 -3 17 3 0 12 -50 22 -99 21
-32 -1 -31 -2 14 -9z"/>
<path d="M370 1630 c8 -5 22 -10 30 -10 13 0 13 1 0 10 -8 5 -22 10 -30 10
-13 0 -13 -1 0 -10z"/>
<path d="M90 1622 c0 -4 16 -24 36 -45 20 -20 32 -37 28 -37 -5 0 -1 -5 9 -11
9 -6 15 -14 12 -19 -3 -5 -1 -11 4 -14 25 -16 -7 50 -44 90 -14 15 -25 31 -25
35 0 5 -4 9 -10 9 -5 0 -10 -4 -10 -8z"/>
<path d="M1470 1605 c-7 -9 -8 -15 -2 -15 5 0 12 7 16 15 3 8 4 15 2 15 -2 0
-9 -7 -16 -15z"/>
<path d="M440 1604 c0 -3 15 -11 34 -19 19 -8 57 -28 85 -44 31 -19 48 -24 44
-15 -3 8 -12 14 -19 14 -8 0 -17 7 -20 15 -4 8 -10 12 -15 9 -5 -3 -9 0 -9 6
0 6 -4 9 -8 6 -5 -3 -21 4 -38 15 -28 18 -54 25 -54 13z"/>
<path d="M1411 1566 c-17 -19 -20 -26 -9 -32 7 -4 10 -4 6 1 -9 9 11 37 21 30
4 -2 8 2 8 10 0 19 1 19 -26 -9z"/>
<path d="M1684 1551 c-43 -11 -54 -19 -48 -36 5 -13 10 -12 36 1 44 23 193 30
245 11 33 -11 45 -12 53 -2 22 27 -197 47 -286 26z"/>
<path d="M326 1535 c-7 -20 8 -57 30 -75 18 -14 18 -14 1 7 -27 31 -19 66 16
68 15 0 27 -3 27 -8 0 -4 5 -5 10 -2 19 12 -1 25 -40 25 -24 0 -40 -5 -44 -15z"/>
<path d="M2007 1533 c-4 -3 -7 -11 -7 -16 0 -6 3 -7 7 -4 3 4 13 1 22 -6 14
-11 15 -10 1 8 -8 11 -15 21 -16 23 0 1 -4 -1 -7 -5z"/>
<path d="M440 1511 c0 -4 17 -15 38 -26 20 -10 39 -20 41 -22 2 -1 -2 -10 -10
-20 -12 -15 -12 -16 4 -10 10 4 21 7 23 7 2 0 4 6 4 14 0 7 -22 25 -50 38 -27
14 -50 22 -50 19z"/>
<path d="M1375 1510 c-3 -5 -1 -10 4 -10 6 0 11 5 11 10 0 6 -2 10 -4 10 -3 0
-8 -4 -11 -10z"/>
<path d="M1580 1509 c0 -5 5 -7 10 -4 6 3 10 8 10 11 0 2 -4 4 -10 4 -5 0 -10
-5 -10 -11z"/>
<path d="M620 1504 c0 -5 19 -22 41 -39 22 -16 57 -51 77 -77 38 -50 68 -68
34 -20 -31 42 -152 151 -152 136z"/>
<path d="M2060 1501 c0 -6 13 -17 29 -25 41 -22 116 -109 147 -172 34 -69 51
-82 20 -15 -33 72 -99 155 -151 191 -25 17 -45 26 -45 21z"/>
<path d="M1525 1490 c-13 -6 -15 -9 -5 -9 8 0 22 4 30 9 18 12 2 12 -25 0z"/>
<path d="M1585 1480 c-57 -36 -73 -51 -78 -73 -5 -20 -4 -20 16 4 12 15 41 39
65 54 23 15 42 29 42 31 0 8 -16 2 -45 -16z"/>
<path d="M1930 1470 c-14 -11 -20 -20 -13 -20 11 0 43 26 43 36 0 7 -4 5 -30
-16z"/>
<path d="M1378 1473 c7 -3 16 -2 19 1 4 3 -2 6 -13 5 -11 0 -14 -3 -6 -6z"/>
<path d="M1443 1473 c9 -2 25 -2 35 0 9 3 1 5 -18 5 -19 0 -27 -2 -17 -5z"/>
<path d="M200 1462 c0 -4 9 -15 20 -25 22 -19 29 0 8 21 -14 14 -28 16 -28 4z"/>
<path d="M394 1435 c11 -8 38 -14 60 -13 41 1 41 1 6 5 -19 3 -39 9 -44 14 -6
5 -17 9 -25 9 -13 -1 -12 -4 3 -15z"/>
<path d="M1852 1424 c-14 -10 -39 -14 -66 -13 -40 3 -125 -26 -113 -38 3 -2
19 3 36 11 16 9 51 16 76 16 42 0 115 22 115 34 0 11 -26 6 -48 -10z"/>
<path d="M250 1391 c0 -6 4 -13 10 -16 6 -3 7 1 4 9 -7 18 -14 21 -14 7z"/>
<path d="M2560 1387 c0 -9 10 -22 23 -28 l22 -12 -20 24 c-11 13 -21 26 -22
28 -2 2 -3 -3 -3 -12z"/>
<path d="M1511 1364 c6 -8 18 -14 26 -14 20 0 8 16 -17 23 -17 4 -19 3 -9 -9z"/>
<path d="M1595 1360 c-18 -8 -17 -9 7 -9 15 -1 30 4 33 9 7 12 -12 12 -40 0z"/>
<path d="M262 1348 c2 -6 10 -14 16 -16 7 -2 10 2 6 12 -7 18 -28 22 -22 4z"/>
<path d="M790 1320 c0 -5 5 -10 11 -10 5 0 7 5 4 10 -3 6 -8 10 -11 10 -2 0
-4 -4 -4 -10z"/>
<path d="M2607 1303 c3 -12 11 -28 19 -34 21 -17 17 5 -5 32 -20 24 -20 24
-14 2z"/>
<path d="M290 1273 c0 -13 5 -23 10 -23 13 0 13 11 0 30 -8 12 -10 11 -10 -7z"/>
<path d="M830 1261 c0 -5 5 -13 10 -16 6 -3 10 -2 10 4 0 5 -4 13 -10 16 -5 3
-10 2 -10 -4z"/>
<path d="M2646 1230 c3 -14 10 -29 15 -34 14 -16 10 6 -7 34 l-15 25 7 -25z"/>
<path d="M1972 1213 c-24 -15 -38 -29 -32 -31 5 -2 22 6 36 17 15 12 35 21 45
21 11 0 19 5 19 10 0 17 -24 11 -68 -17z"/>
<path d="M2097 1215 c29 -14 63 -39 77 -56 30 -35 43 -38 21 -5 -21 32 -82 73
-120 81 -22 4 -16 -1 22 -20z"/>
<path d="M311 1214 c0 -11 3 -14 6 -6 3 7 2 16 -1 19 -3 4 -6 -2 -5 -13z"/>
<path d="M2275 1210 c4 -14 9 -42 12 -62 3 -21 9 -36 13 -33 10 6 -3 75 -19
100 -11 18 -12 18 -6 -5z"/>
<path d="M870 1198 c0 -17 44 -80 48 -68 3 7 0 15 -5 19 -5 3 -17 17 -26 31
-9 13 -17 21 -17 18z"/>
<path d="M1365 1173 c28 -14 61 -36 74 -49 13 -13 34 -24 46 -24 19 0 66 28
85 50 26 31 119 30 156 -1 23 -19 47 -70 51 -107 4 -32 -28 -118 -39 -106 -3
3 -9 -4 -13 -15 -3 -12 -10 -21 -15 -21 -5 0 -41 -38 -81 -85 -40 -47 -78 -85
-86 -85 -7 0 -13 -6 -13 -14 0 -30 -19 -25 -70 16 -60 49 -151 111 -155 106
-2 -2 13 -14 32 -28 20 -14 64 -51 98 -82 34 -32 68 -58 77 -58 17 0 252 246
273 287 8 15 15 54 15 85 0 50 -4 62 -31 93 -69 78 -145 85 -223 21 -24 -20
-52 -36 -61 -36 -10 0 -33 14 -52 30 -18 17 -42 30 -53 30 -10 0 -22 5 -25 10
-3 6 -14 10 -23 10 -9 -1 6 -13 33 -27z"/>
<path d="M325 1152 c3 -24 8 -70 12 -103 3 -32 10 -59 15 -59 5 0 7 3 5 8 -3
4 -8 41 -12 82 -4 41 -11 83 -16 95 -7 14 -8 8 -4 -23z"/>
<path d="M2667 1173 c-3 -4 1 -17 9 -28 14 -19 15 -19 11 2 -4 26 -13 38 -20
26z"/>
<path d="M1920 1160 c0 -5 4 -10 9 -10 4 0 29 -18 55 -41 25 -22 46 -37 46
-32 0 11 -46 54 -82 76 -16 10 -28 13 -28 7z"/>
<path d="M1191 1131 c-10 -6 -10 -10 -1 -16 13 -8 24 -1 19 14 -3 6 -10 7 -18
2z"/>
<path d="M2215 1110 c3 -5 8 -10 11 -10 2 0 4 5 4 10 0 6 -5 10 -11 10 -5 0
-7 -4 -4 -10z"/>
<path d="M2693 1078 c15 -65 17 -71 22 -66 7 7 -17 108 -25 108 -4 0 -3 -19 3
-42z"/>
<path d="M921 1094 c0 -11 3 -14 6 -6 3 7 2 16 -1 19 -3 4 -6 -2 -5 -13z"/>
<path d="M1171 1038 c1 -72 5 -68 12 10 2 28 0 52 -4 52 -5 0 -9 -28 -8 -62z"/>
<path d="M2301 1068 c-1 -21 4 -38 9 -38 11 0 11 14 0 50 -7 22 -8 21 -9 -12z"/>
<path d="M2055 1010 c14 -29 29 -50 31 -47 7 7 -32 84 -47 92 -5 4 1 -16 16
-45z"/>
<path d="M2271 1023 c12 -21 28 -45 36 -53 11 -12 13 -10 13 17 0 23 -4 30
-17 29 -10 0 -22 9 -28 22 -5 12 -14 22 -18 22 -5 0 1 -17 14 -37z"/>
<path d="M949 993 c40 -99 62 -146 67 -140 3 3 -6 27 -19 54 -13 26 -30 65
-36 85 -7 21 -17 40 -22 44 -5 3 -1 -16 10 -43z"/>
<path d="M2717 914 c3 -49 7 -91 9 -93 8 -9 3 155 -5 168 -5 8 -7 -22 -4 -75z"/>
<path d="M351 933 c0 -28 2 -54 7 -57 4 -2 6 14 4 37 -5 68 -10 76 -11 20z"/>
<path d="M1180 962 c0 -4 10 -13 23 -21 22 -14 22 -14 3 8 -20 22 -26 25 -26
13z"/>
<path d="M2090 936 c0 -8 5 -18 10 -21 6 -3 10 1 10 9 0 8 -4 18 -10 21 -5 3
-10 -1 -10 -9z"/>
<path d="M1220 916 c0 -2 7 -9 15 -16 13 -11 14 -10 9 4 -5 14 -24 23 -24 12z"/>
<path d="M757 903 c-7 -13 13 -196 22 -207 5 -6 14 -30 20 -53 7 -24 16 -43
22 -43 6 0 7 4 4 10 -3 5 -17 47 -30 92 -25 85 -31 138 -17 138 10 0 45 -38
60 -65 6 -11 12 -15 12 -9 0 6 -11 26 -25 45 -14 19 -32 49 -40 67 -16 33 -21
37 -28 25z"/>
<path d="M1260 882 c0 -4 10 -13 23 -21 22 -14 22 -14 3 8 -20 22 -26 25 -26
13z"/>
<path d="M2110 880 c0 -5 5 -10 11 -10 5 0 7 5 4 10 -3 6 -8 10 -11 10 -2 0
-4 -4 -4 -10z"/>
<path d="M361 838 c-1 -16 4 -28 9 -28 12 0 12 8 0 35 -8 18 -9 17 -9 -7z"/>
<path d="M2120 848 c0 -9 5 -20 10 -23 6 -4 7 -11 4 -17 -4 -7 -2 -8 4 -4 16
9 15 18 -3 42 -13 17 -14 17 -15 2z"/>
<path d="M1040 810 c14 -29 69 -80 87 -80 6 0 14 -6 16 -12 4 -10 6 -10 6 0 1
7 -10 17 -22 21 -13 5 -41 29 -61 53 -24 27 -33 34 -26 18z"/>
<path d="M2720 786 c0 -14 5 -26 10 -26 6 0 10 9 10 19 0 11 -4 23 -10 26 -6
4 -10 -5 -10 -19z"/>
<path d="M370 790 c0 -5 5 -10 11 -10 5 0 7 5 4 10 -3 6 -8 10 -11 10 -2 0 -4
-4 -4 -10z"/>
<path d="M2147 776 c-11 -27 -8 -36 8 -36 16 0 17 5 6 34 -7 18 -8 18 -14 2z"/>
<path d="M868 745 c16 -31 74 -83 105 -94 40 -15 89 -13 112 5 20 16 20 16 0
11 -58 -17 -75 -17 -106 -4 -19 8 -54 34 -78 58 -24 24 -39 35 -33 24z"/>
<path d="M2732 725 c0 -11 4 -31 8 -45 6 -20 8 -21 8 -5 0 11 -4 31 -8 45 -6
20 -8 21 -8 5z"/>
<path d="M2160 710 c0 -6 5 -10 10 -10 6 0 10 -6 10 -13 0 -7 8 -22 18 -33 9
-10 26 -36 37 -56 11 -21 23 -38 28 -38 8 0 5 5 -39 75 -14 22 -27 48 -30 57
-7 18 -34 33 -34 18z"/>
<path d="M391 694 c0 -11 3 -14 6 -6 3 7 2 16 -1 19 -3 4 -6 -2 -5 -13z"/>
<path d="M413 667 c1 -22 4 -32 9 -24 5 8 8 6 9 -8 0 -11 3 -15 5 -9 2 6 -2
26 -10 45 l-14 34 1 -38z"/>
<path d="M2751 634 c-2 -19 31 -104 40 -104 4 0 0 19 -10 43 -10 23 -20 49
-24 57 -3 8 -6 10 -6 4z"/>
<path d="M440 600 c1 -17 28 -56 34 -49 3 3 -4 18 -14 34 -11 17 -20 23 -20
15z"/>
<path d="M830 573 c1 -5 7 -19 15 -33 10 -18 14 -20 15 -8 0 9 -5 20 -10 23
-6 4 -8 11 -5 16 4 5 1 9 -4 9 -6 0 -11 -3 -11 -7z"/>
<path d="M2270 544 c0 -6 20 -34 45 -63 25 -29 45 -48 45 -42 0 8 -39 57 -86
110 -2 2 -4 0 -4 -5z"/>
<path d="M478 531 c8 -4 13 -12 12 -17 -1 -5 4 -10 10 -12 9 -3 9 1 1 17 -7
11 -17 21 -24 21 -8 0 -8 -3 1 -9z"/>
<path d="M1500 533 c43 -4 70 -17 70 -33 0 -4 -14 -22 -30 -40 -42 -45 -31
-48 13 -4 35 36 36 37 19 60 -14 20 -25 23 -67 22 l-50 -1 45 -4z"/>
<path d="M1420 520 c0 -5 7 -10 15 -10 8 0 15 5 15 10 0 6 -7 10 -15 10 -8 0
-15 -4 -15 -10z"/>
<path d="M870 503 c0 -5 25 -33 55 -63 30 -30 55 -49 55 -43 0 6 -13 21 -30
33 -16 12 -30 27 -30 33 -1 13 -50 53 -50 40z"/>
<path d="M1362 498 c-6 -6 -31 -11 -55 -9 -31 1 -59 -6 -95 -25 -53 -27 -84
-54 -64 -54 6 0 14 5 18 11 13 21 107 58 134 52 24 -4 90 19 90 32 0 9 -16 5
-28 -7z"/>
<path d="M2800 498 c0 -9 5 -20 10 -23 13 -8 13 5 0 25 -8 13 -10 13 -10 -2z"/>
<path d="M511 485 c0 -13 28 -50 33 -44 3 2 -4 15 -14 29 -11 14 -20 21 -19
15z"/>
<path d="M2578 459 c-19 -11 -24 -44 -8 -54 6 -4 9 4 7 17 -2 19 4 24 33 29
19 4 30 7 23 8 -6 0 -17 3 -25 6 -7 2 -21 0 -30 -6z"/>
<path d="M2820 446 c0 -8 5 -18 11 -21 6 -4 14 -16 18 -28 5 -12 10 -16 14
-10 4 6 0 18 -8 26 -8 9 -15 20 -15 26 0 5 -4 13 -10 16 -5 3 -10 -1 -10 -9z"/>
<path d="M2674 425 c11 -8 24 -15 30 -15 5 0 1 7 -10 15 -10 8 -23 14 -29 14
-5 0 -1 -6 9 -14z"/>
<path d="M566 408 c10 -14 21 -24 23 -22 3 3 -6 15 -18 27 l-24 22 19 -27z"/>
<path d="M1608 413 c17 -2 47 -2 65 0 17 2 3 4 -33 4 -36 0 -50 -2 -32 -4z"/>
<path d="M1438 384 c-61 -32 -170 -45 -255 -32 -41 6 -69 6 -75 0 -16 -16 132
-35 216 -27 42 4 76 10 76 15 0 4 10 10 23 13 12 3 38 11 57 18 19 6 41 14 49
16 18 4 12 9 -19 16 -16 3 -43 -4 -72 -19z"/>
<path d="M1550 399 c0 -5 5 -7 10 -4 6 3 10 8 10 11 0 2 -4 4 -10 4 -5 0 -10
-5 -10 -11z"/>
<path d="M2725 400 c3 -5 8 -10 11 -10 2 0 4 5 4 10 0 6 -5 10 -11 10 -5 0 -7
-4 -4 -10z"/>
<path d="M1675 360 c-21 -22 -40 -47 -41 -55 -3 -23 5 -18 16 11 6 14 14 23
18 20 9 -5 57 52 50 60 -2 2 -22 -14 -43 -36z"/>
<path d="M2410 390 c0 -5 5 -10 11 -10 5 0 7 5 4 10 -3 6 -8 10 -11 10 -2 0
-4 -4 -4 -10z"/>
<path d="M2755 377 c-6 -12 -21 -24 -35 -27 -14 -3 -20 -9 -14 -12 12 -8 74
27 74 41 0 20 -16 19 -25 -2z"/>
<path d="M1020 370 c14 -10 27 -16 30 -13 6 6 -30 33 -44 33 -6 0 0 -9 14 -20z"/>
<path d="M2599 370 c13 -11 27 -20 32 -20 18 0 8 10 -23 25 l-33 16 24 -21z"/>
<path d="M600 370 c0 -5 5 -10 11 -10 5 0 7 5 4 10 -3 6 -8 10 -11 10 -2 0 -4
-4 -4 -10z"/>
<path d="M2450 355 c7 -8 17 -15 22 -15 6 0 5 7 -2 15 -7 8 -17 15 -22 15 -6
0 -5 -7 2 -15z"/>
<path d="M2870 361 c0 -5 5 -13 10 -16 6 -3 10 -2 10 4 0 5 -4 13 -10 16 -5 3
-10 2 -10 -4z"/>
<path d="M1060 350 c0 -5 7 -10 16 -10 8 0 12 5 9 10 -3 6 -10 10 -16 10 -5 0
-9 -4 -9 -10z"/>
<path d="M2660 339 c0 -5 5 -7 10 -4 6 3 10 8 10 11 0 2 -4 4 -10 4 -5 0 -10
-5 -10 -11z"/>
<path d="M2491 324 c0 -11 3 -14 6 -6 3 7 2 16 -1 19 -3 4 -6 -2 -5 -13z"/>
<path d="M657 311 c5 -20 43 -61 43 -46 0 4 8 1 18 -6 15 -13 16 -12 3 4 -8 9
-16 15 -19 12 -7 -7 -33 16 -27 25 3 4 -2 13 -9 19 -12 10 -13 8 -9 -8z"/>
<path d="M2905 314 c11 -8 20 -18 20 -22 0 -4 8 -18 18 -32 l19 -25 -8 25
c-10 36 -36 69 -54 69 -11 0 -10 -4 5 -15z"/>
<path d="M2523 308 c2 -7 10 -12 16 -10 6 1 11 -2 11 -8 0 -5 7 -10 15 -10 8
0 15 -4 15 -10 0 -5 5 -10 10 -10 23 0 7 21 -31 41 -28 14 -40 16 -36 7z"/>
<path d="M1573 265 c-7 -8 -21 -18 -30 -24 -10 -5 -15 -12 -13 -15 3 -3 19 6
35 19 17 13 28 25 25 28 -3 3 -11 -1 -17 -8z"/>
<path d="M2620 266 c0 -10 88 -46 112 -45 22 0 22 1 3 8 -11 5 -33 13 -50 18
-16 6 -38 14 -47 18 -10 4 -18 5 -18 1z"/>
<path d="M746 236 c3 -7 15 -18 27 -25 12 -6 36 -20 52 -30 33 -21 45 -25 45
-13 -1 4 -23 18 -50 31 -28 13 -50 28 -50 32 0 4 -7 9 -14 12 -10 4 -13 1 -10
-7z"/>
<path d="M1481 200 c-13 -11 -19 -20 -13 -20 5 0 20 9 33 20 13 10 20 19 14
19 -5 0 -21 -9 -34 -19z"/>
<path d="M2768 213 c6 -2 18 -2 25 0 6 3 1 5 -13 5 -14 0 -19 -2 -12 -5z"/>
<path d="M2813 208 c-2 -5 33 -7 79 -7 84 2 77 6 -20 11 -30 2 -56 0 -59 -4z"/>
<path d="M880 159 c0 -4 17 -13 38 -19 20 -7 41 -16 47 -21 11 -11 35 -12 35
-1 0 4 -27 16 -60 28 -33 12 -60 18 -60 13z"/>
<path d="M1400 160 c-24 -15 -7 -19 20 -5 15 8 19 14 10 14 -8 1 -22 -3 -30
-9z"/>
<path d="M1350 140 c-8 -5 -10 -10 -5 -10 6 0 17 5 25 10 8 5 11 10 5 10 -5 0
-17 -5 -25 -10z"/>
<path d="M1300 120 c0 -5 7 -10 15 -10 8 0 15 5 15 10 0 6 -7 10 -15 10 -8 0
-15 -4 -15 -10z"/>
<path d="M1015 110 c3 -5 18 -10 33 -10 21 0 24 2 12 10 -20 13 -53 13 -45 0z"/>
<path d="M1200 108 c-30 -5 -70 -7 -87 -4 -18 3 -33 1 -33 -5 0 -12 167 -12
175 1 4 6 11 8 16 5 5 -4 9 -1 9 4 0 12 -4 12 -80 -1z"/>
</g>
</svg>
