<?xml version="1.0" encoding="utf-8"?>
<!-- Generator: Adobe Illustrator 19.0.0, SVG Export Plug-In . SVG Version: 6.00 Build 0)  -->
<svg version="1.1" id="Layer_1" xmlns="http://www.w3.org/2000/svg" xmlns:xlink="http://www.w3.org/1999/xlink" x="0px" y="0px"
	 viewBox="0 0 85 88.7" style="enable-background:new 0 0 85 88.7;" xml:space="preserve">
<style type="text/css">
	.st0{fill:#e676a8;}
</style>
<path id="XMLID_151_" class="st0" d="M41.9,5.2C20.1,5.2,2.4,22.9,2.4,44.7c0,21.8,17.7,39.5,39.5,39.5s39.5-17.7,39.5-39.5
	C81.4,22.9,63.7,5.2,41.9,5.2z M64.7,28.7C57,35.3,49.3,41.9,41.6,48.5c-7.7-6.6-15.3-13.1-23.1-19.9C34,28.7,49.3,28.7,64.7,28.7z
	 M64.9,60.7c-0.3,0-0.6,0-0.9,0c-14.8,0-29.5,0-44.3,0c-0.7,0-1.5-0.1-2.2-0.4c-1.3-0.5-1.9-1.6-1.9-3c0-8.4,0-16.7,0-25.1
	c0-0.3,0.1-0.7,0.1-1.2c2.1,1.8,4.1,3.5,6.1,5.2c6,5.2,12.1,10.4,18.1,15.6c1.1,0.9,2,0.9,3.1,0c8-6.8,16-13.7,23.9-20.5
	c0.2-0.2,0.5-0.4,0.9-0.7c0.1,0.6,0.2,1,0.2,1.5c0,8.4,0,16.9,0,25.3C68.2,59.1,66.7,60.6,64.9,60.7z"/>
</svg>
