<?xml version="1.0" encoding="utf-8"?>
<!-- Generator: Adobe Illustrator 19.0.0, SVG Export Plug-In . SVG Version: 6.00 Build 0)  -->
<svg version="1.1" id="Layer_1" xmlns="http://www.w3.org/2000/svg" xmlns:xlink="http://www.w3.org/1999/xlink" x="0px" y="0px"
	 viewBox="0 0 85 88.7" style="enable-background:new 0 0 85 88.7;" xml:space="preserve">
<style type="text/css">
	.st0{fill:#e676a8;}
</style>
<path id="XMLID_156_" class="st0" d="M41.9,5.2C20.1,5.2,2.4,22.9,2.4,44.7c0,21.8,17.7,39.5,39.5,39.5c21.8,0,39.5-17.7,39.5-39.5
	C81.4,22.9,63.7,5.2,41.9,5.2z M67.4,59.9c0,0.1,0,0.1,0,0.2c-0.2,1-0.4,2.1-0.6,3.1c-0.3,1.5-1.2,2.7-2.5,3.6c-0.5,0.4-1,0.7-1.5,1
	c-1.6,1-3.3,1.7-5.2,2.1c-0.5,0.1-1.1,0.2-1.6,0.2c-0.5,0-1,0-1.6,0c-0.1,0-0.1,0-0.2,0c-1.2-0.1-2.3-0.3-3.4-0.7
	c-1.6-0.5-3.1-1.1-4.7-1.6c-3.5-1.2-6.8-3-9.8-5.2c-4.2-3.2-7.9-6.8-11.2-10.9c-1.8-2.3-3.5-4.6-4.7-7.3c-1-2-1.7-4.1-2.5-6.2
	c-0.6-1.5-1-3-1.3-4.5c-0.1-0.5-0.1-0.9-0.2-1.4c0-0.5,0-1.1,0-1.6c0-0.1,0-0.1,0-0.2c0.1-0.5,0.1-1.1,0.3-1.6
	c0.5-2.4,1.7-4.5,3.1-6.5c0.7-0.9,1.5-1.7,2.6-2.1c0.9-0.3,1.8-0.5,2.7-0.7c0.5-0.1,1-0.2,1.5-0.3c0.3,0,0.7,0,1,0
	c0.5,0.1,0.9,0.5,1.2,1c0.2,0.3,0.3,0.6,0.5,0.8c1.3,2.4,2.6,4.7,3.9,7.1c0.3,0.5,0.7,1,1,1.6c0.2,0.3,0.4,0.6,0.5,1
	c0.3,0.6,0.2,1.2-0.2,1.8c-0.5,0.7-1.1,1.3-1.7,1.8c-1,0.9-2.1,1.7-3.1,2.6c-0.4,0.3-0.7,0.7-1,1c-0.4,0.5-0.5,1-0.3,1.6
	c0.1,0.3,0.2,0.6,0.4,0.9c1.2,2,2.3,4.1,3.7,6c3,4.1,6.7,7.3,11.1,9.8c0.9,0.5,1.8,1,2.7,1.6c0,0,0,0,0,0c1.1,0.5,1.7,0.5,2.6-0.4
	c0.9-0.9,1.6-1.8,2.4-2.8c0.7-0.8,1.4-1.7,2.2-2.4c0.9-0.8,1.6-0.8,2.6-0.3c0.1,0.1,0.2,0.1,0.3,0.2c2.4,1.7,5,3,7.6,4.4
	c0.5,0.3,1.1,0.6,1.7,0.9c0.2,0.1,0.3,0.2,0.5,0.3c0.5,0.3,0.9,0.7,1,1.2C67.4,59.3,67.4,59.6,67.4,59.9z"/>
</svg>
